M48
; DRILL file {KiCad (6.0.6)} date Fri Aug  5 17:16:20 2022
; FORMAT={-:-/ absolute / inch / decimal}
; #@! TF.CreationDate,2022-08-05T17:16:20-07:00
; #@! TF.GenerationSoftware,Kicad,Pcbnew,(6.0.6)
; #@! TF.FileFunction,NonPlated,1,2,NPTH
FMAT,2
INCH
; #@! TA.AperFunction,NonPlated,NPTH,ComponentDrill
T1C0.0256
; #@! TA.AperFunction,NonPlated,NPTH,ComponentDrill
T2C0.0689
; #@! TA.AperFunction,NonPlated,NPTH,ComponentDrill
T3C0.1570
%
G90
G05
T1
X9.3351Y-4.3862
X9.3351Y-4.6138
T2
X2.1437Y-2.7188
X2.3312Y-3.4688
X2.5437Y-2.7188
X2.7062Y-4.2188
X2.7312Y-3.4688
X2.8937Y-2.7188
X3.0812Y-3.4688
X3.1062Y-4.2188
X3.2937Y-2.7188
X3.4562Y-4.2188
X3.4812Y-3.4688
X3.6437Y-2.7188
X3.8312Y-3.4688
X3.8562Y-4.2188
X4.0438Y-2.7188
X4.2062Y-4.2188
X4.2313Y-3.4688
X4.3937Y-2.7188
X4.5812Y-3.4688
X4.6063Y-4.2188
X4.7938Y-2.7188
X4.9562Y-4.2188
X4.9813Y-3.4688
X5.1437Y-2.7188
X5.3312Y-3.4688
X5.3563Y-4.2188
X5.5438Y-2.7188
X5.6125Y-4.9688
X5.7062Y-4.2188
X5.7313Y-3.4688
X5.8937Y-2.7188
X6.0125Y-4.9688
X6.0812Y-3.4688
X6.1063Y-4.2188
X6.2938Y-2.7188
X6.4562Y-4.2188
X6.4813Y-3.4688
X6.6437Y-2.7188
X6.8312Y-3.4688
X6.8563Y-4.2188
X7.0438Y-2.7188
X7.2062Y-4.2188
X7.2313Y-3.4688
X7.3937Y-2.7188
X7.5812Y-3.4688
X7.6063Y-4.2188
X7.7938Y-2.7188
X7.9813Y-3.4688
X8.1437Y-2.7188
X8.3312Y-3.4688
X8.5437Y-2.7188
X8.7312Y-3.4688
X8.8937Y-2.7188
X9.2937Y-2.7188
T3
X2.3438Y-2.7188
X2.5312Y-3.4688
X2.9062Y-4.2188
X3.0938Y-2.7188
X3.2812Y-3.4688
X3.6562Y-4.2188
X3.8438Y-2.7188
X4.0312Y-3.4688
X4.4062Y-4.2188
X4.5938Y-2.7188
X4.7812Y-3.4688
X5.1562Y-4.2188
X5.3438Y-2.7188
X5.5312Y-3.4688
X5.8125Y-4.9688
X5.9062Y-4.2188
X6.0938Y-2.7188
X6.2812Y-3.4688
X6.6562Y-4.2188
X6.8438Y-2.7188
X7.0312Y-3.4688
X7.4062Y-4.2188
X7.5938Y-2.7188
X7.7812Y-3.4688
X8.3438Y-2.7188
X8.5312Y-3.4688
X9.0938Y-2.7188
T0
M30
