M48
; DRILL file {KiCad (6.0.6)} date Fri Aug  5 17:16:20 2022
; FORMAT={-:-/ absolute / inch / decimal}
; #@! TF.CreationDate,2022-08-05T17:16:20-07:00
; #@! TF.GenerationSoftware,Kicad,Pcbnew,(6.0.6)
; #@! TF.FileFunction,Plated,1,2,PTH
FMAT,2
INCH
; #@! TA.AperFunction,Plated,PTH,ViaDrill
T1C0.0157
; #@! TA.AperFunction,Plated,PTH,ComponentDrill
T2C0.0236
; #@! TA.AperFunction,Plated,PTH,ComponentDrill
T3C0.0394
; #@! TA.AperFunction,Plated,PTH,ComponentDrill
T4C0.1181
%
G90
G05
T1
X2.07Y-2.52
X2.15Y-2.995
X2.26Y-3.275
X2.635Y-4.025
X2.72Y-2.615
X2.875Y-3.94
X2.905Y-3.365
X3.0Y-3.0
X3.28Y-4.115
X3.47Y-2.585
X3.655Y-3.335
X4.0Y-3.0
X4.03Y-4.085
X4.21Y-4.0
X4.22Y-2.585
X4.405Y-3.335
X4.78Y-4.085
X4.97Y-2.585
X4.97Y-3.0
X5.0Y-4.0
X5.0Y-5.0
X5.155Y-3.335
X5.435Y-4.835
X5.53Y-4.085
X5.72Y-2.585
X5.87Y-4.005
X5.905Y-3.335
X5.93Y-4.5625
X5.96Y-4.53
X5.99Y-4.5
X6.0Y-3.0
X6.02Y-4.4714
X6.13Y-4.655
X6.1308Y-4.6157
X6.1706Y-4.6146
X6.2105Y-4.6205
X6.2527Y-4.6223
X6.28Y-4.085
X6.47Y-2.585
X6.5Y-5.0
X6.655Y-3.335
X7.0Y-3.0
X7.03Y-4.085
X7.15Y-4.0
X7.22Y-2.585
X7.405Y-3.335
X7.935Y-4.69
X7.97Y-2.585
X7.97Y-3.0
X8.0Y-4.0
X8.079Y-4.4485
X8.11Y-4.28
X8.115Y-4.115
X8.115Y-4.4664
X8.155Y-3.335
X8.1554Y-4.4687
X8.185Y-3.9136
X8.1962Y-4.4684
X8.23Y-3.855
X8.2375Y-4.4675
X8.3223Y-4.4923
X8.3664Y-4.665
X8.395Y-4.6938
X8.495Y-3.8
X8.635Y-4.56
X8.72Y-2.585
X8.725Y-4.105
X8.78Y-4.37
X8.785Y-4.455
X8.785Y-4.54
X8.8Y-2.405
X8.855Y-4.29
X8.865Y-4.455
X8.865Y-4.54
X8.885Y-4.575
X8.94Y-3.755
X8.9478Y-3.5789
X8.95Y-4.37
X8.9764Y-3.6072
X9.0Y-3.0
X9.005Y-3.635
X9.015Y-3.83
X9.0396Y-4.4815
X9.0396Y-4.5229
X9.1166Y-4.466
X9.13Y-4.25
X9.13Y-4.745
X9.156Y-4.466
X9.2Y-4.61
X9.2Y-4.725
X9.205Y-4.195
X9.205Y-4.27
X9.21Y-4.375
X9.235Y-4.115
X9.295Y-4.84
X9.3Y-4.75
X9.305Y-4.255
X9.4Y-4.5
X9.5Y-4.4
X9.5Y-4.6
T3
X7.87Y-4.17
X7.87Y-4.27
X7.87Y-4.37
X7.97Y-4.17
X7.97Y-4.27
X7.97Y-4.37
T4
X2.1938Y-2.6187
X2.3813Y-3.3687
X2.4438Y-2.5187
X2.6313Y-3.2687
X2.7563Y-4.1187
X2.9438Y-2.6187
X3.0063Y-4.0187
X3.1313Y-3.3687
X3.1938Y-2.5187
X3.3813Y-3.2687
X3.5063Y-4.1187
X3.6938Y-2.6187
X3.7563Y-4.0187
X3.8813Y-3.3687
X3.9438Y-2.5187
X4.1312Y-3.2687
X4.2562Y-4.1187
X4.4437Y-2.6187
X4.5062Y-4.0187
X4.6312Y-3.3687
X4.6937Y-2.5187
X4.8812Y-3.2687
X5.0062Y-4.1187
X5.1937Y-2.6187
X5.2562Y-4.0187
X5.3812Y-3.3687
X5.4437Y-2.5187
X5.6312Y-3.2687
X5.6625Y-4.8687
X5.7562Y-4.1187
X5.9125Y-4.7687
X5.9437Y-2.6187
X6.0062Y-4.0187
X6.1312Y-3.3687
X6.1937Y-2.5187
X6.3812Y-3.2687
X6.5062Y-4.1187
X6.6937Y-2.6187
X6.7562Y-4.0187
X6.8812Y-3.3687
X6.9437Y-2.5187
X7.1312Y-3.2687
X7.2562Y-4.1187
X7.4437Y-2.6187
X7.5062Y-4.0187
X7.6312Y-3.3687
X7.6937Y-2.5187
X7.8812Y-3.2687
X8.1937Y-2.6187
X8.3812Y-3.3687
X8.4437Y-2.5187
X8.6312Y-3.2687
X8.9437Y-2.6187
X9.1937Y-2.5187
T2
G00X9.2926Y-4.3299
M15
G01X9.3359Y-4.3299
M16
G05
G00X9.2926Y-4.6701
M15
G01X9.3359Y-4.6701
M16
G05
G00X9.467Y-4.3299
M15
G01X9.4906Y-4.3299
M16
G05
G00X9.467Y-4.6701
M15
G01X9.4906Y-4.6701
M16
G05
T0
M30
