G04 #@! TF.GenerationSoftware,KiCad,Pcbnew,(6.0.6)*
G04 #@! TF.CreationDate,2022-08-05T17:16:04-07:00*
G04 #@! TF.ProjectId,bored27-revision,626f7265-6432-4372-9d72-65766973696f,rev?*
G04 #@! TF.SameCoordinates,Original*
G04 #@! TF.FileFunction,Legend,Bot*
G04 #@! TF.FilePolarity,Positive*
%FSLAX46Y46*%
G04 Gerber Fmt 4.6, Leading zero omitted, Abs format (unit mm)*
G04 Created by KiCad (PCBNEW (6.0.6)) date 2022-08-05 17:16:04*
%MOMM*%
%LPD*%
G01*
G04 APERTURE LIST*
%ADD10C,0.150000*%
%ADD11C,0.250000*%
G04 APERTURE END LIST*
D10*
X140719345Y-67758630D02*
X140719345Y-66758630D01*
X140147916Y-67758630D02*
X140576488Y-67187202D01*
X140147916Y-66758630D02*
X140719345Y-67330059D01*
X139243154Y-66758630D02*
X139719345Y-66758630D01*
X139766964Y-67234821D01*
X139719345Y-67187202D01*
X139624107Y-67139583D01*
X139386011Y-67139583D01*
X139290773Y-67187202D01*
X139243154Y-67234821D01*
X139195535Y-67330059D01*
X139195535Y-67568154D01*
X139243154Y-67663392D01*
X139290773Y-67711011D01*
X139386011Y-67758630D01*
X139624107Y-67758630D01*
X139719345Y-67711011D01*
X139766964Y-67663392D01*
X126908035Y-86808630D02*
X126908035Y-85808630D01*
X126336607Y-86808630D02*
X126765178Y-86237202D01*
X126336607Y-85808630D02*
X126908035Y-86380059D01*
X125384226Y-86808630D02*
X125955654Y-86808630D01*
X125669940Y-86808630D02*
X125669940Y-85808630D01*
X125765178Y-85951488D01*
X125860416Y-86046726D01*
X125955654Y-86094345D01*
X124527083Y-86141964D02*
X124527083Y-86808630D01*
X124765178Y-85761011D02*
X125003273Y-86475297D01*
X124384226Y-86475297D01*
X69758035Y-86808630D02*
X69758035Y-85808630D01*
X69186607Y-86808630D02*
X69615178Y-86237202D01*
X69186607Y-85808630D02*
X69758035Y-86380059D01*
X68234226Y-86808630D02*
X68805654Y-86808630D01*
X68519940Y-86808630D02*
X68519940Y-85808630D01*
X68615178Y-85951488D01*
X68710416Y-86046726D01*
X68805654Y-86094345D01*
X67281845Y-86808630D02*
X67853273Y-86808630D01*
X67567559Y-86808630D02*
X67567559Y-85808630D01*
X67662797Y-85951488D01*
X67758035Y-86046726D01*
X67853273Y-86094345D01*
X174533035Y-105858630D02*
X174533035Y-104858630D01*
X173961607Y-105858630D02*
X174390178Y-105287202D01*
X173961607Y-104858630D02*
X174533035Y-105430059D01*
X173580654Y-104953869D02*
X173533035Y-104906250D01*
X173437797Y-104858630D01*
X173199702Y-104858630D01*
X173104464Y-104906250D01*
X173056845Y-104953869D01*
X173009226Y-105049107D01*
X173009226Y-105144345D01*
X173056845Y-105287202D01*
X173628273Y-105858630D01*
X173009226Y-105858630D01*
X172104464Y-104858630D02*
X172580654Y-104858630D01*
X172628273Y-105334821D01*
X172580654Y-105287202D01*
X172485416Y-105239583D01*
X172247321Y-105239583D01*
X172152083Y-105287202D01*
X172104464Y-105334821D01*
X172056845Y-105430059D01*
X172056845Y-105668154D01*
X172104464Y-105763392D01*
X172152083Y-105811011D01*
X172247321Y-105858630D01*
X172485416Y-105858630D01*
X172580654Y-105811011D01*
X172628273Y-105763392D01*
X165008035Y-86808630D02*
X165008035Y-85808630D01*
X164436607Y-86808630D02*
X164865178Y-86237202D01*
X164436607Y-85808630D02*
X165008035Y-86380059D01*
X163484226Y-86808630D02*
X164055654Y-86808630D01*
X163769940Y-86808630D02*
X163769940Y-85808630D01*
X163865178Y-85951488D01*
X163960416Y-86046726D01*
X164055654Y-86094345D01*
X162627083Y-85808630D02*
X162817559Y-85808630D01*
X162912797Y-85856250D01*
X162960416Y-85903869D01*
X163055654Y-86046726D01*
X163103273Y-86237202D01*
X163103273Y-86618154D01*
X163055654Y-86713392D01*
X163008035Y-86761011D01*
X162912797Y-86808630D01*
X162722321Y-86808630D01*
X162627083Y-86761011D01*
X162579464Y-86713392D01*
X162531845Y-86618154D01*
X162531845Y-86380059D01*
X162579464Y-86284821D01*
X162627083Y-86237202D01*
X162722321Y-86189583D01*
X162912797Y-86189583D01*
X163008035Y-86237202D01*
X163055654Y-86284821D01*
X163103273Y-86380059D01*
X236445535Y-67758630D02*
X236445535Y-66758630D01*
X235874107Y-67758630D02*
X236302678Y-67187202D01*
X235874107Y-66758630D02*
X236445535Y-67330059D01*
X234921726Y-67758630D02*
X235493154Y-67758630D01*
X235207440Y-67758630D02*
X235207440Y-66758630D01*
X235302678Y-66901488D01*
X235397916Y-66996726D01*
X235493154Y-67044345D01*
X234302678Y-66758630D02*
X234207440Y-66758630D01*
X234112202Y-66806250D01*
X234064583Y-66853869D01*
X234016964Y-66949107D01*
X233969345Y-67139583D01*
X233969345Y-67377678D01*
X234016964Y-67568154D01*
X234064583Y-67663392D01*
X234112202Y-67711011D01*
X234207440Y-67758630D01*
X234302678Y-67758630D01*
X234397916Y-67711011D01*
X234445535Y-67663392D01*
X234493154Y-67568154D01*
X234540773Y-67377678D01*
X234540773Y-67139583D01*
X234493154Y-66949107D01*
X234445535Y-66853869D01*
X234397916Y-66806250D01*
X234302678Y-66758630D01*
X197869345Y-67758630D02*
X197869345Y-66758630D01*
X197297916Y-67758630D02*
X197726488Y-67187202D01*
X197297916Y-66758630D02*
X197869345Y-67330059D01*
X196726488Y-67187202D02*
X196821726Y-67139583D01*
X196869345Y-67091964D01*
X196916964Y-66996726D01*
X196916964Y-66949107D01*
X196869345Y-66853869D01*
X196821726Y-66806250D01*
X196726488Y-66758630D01*
X196536011Y-66758630D01*
X196440773Y-66806250D01*
X196393154Y-66853869D01*
X196345535Y-66949107D01*
X196345535Y-66996726D01*
X196393154Y-67091964D01*
X196440773Y-67139583D01*
X196536011Y-67187202D01*
X196726488Y-67187202D01*
X196821726Y-67234821D01*
X196869345Y-67282440D01*
X196916964Y-67377678D01*
X196916964Y-67568154D01*
X196869345Y-67663392D01*
X196821726Y-67711011D01*
X196726488Y-67758630D01*
X196536011Y-67758630D01*
X196440773Y-67711011D01*
X196393154Y-67663392D01*
X196345535Y-67568154D01*
X196345535Y-67377678D01*
X196393154Y-67282440D01*
X196440773Y-67234821D01*
X196536011Y-67187202D01*
X216919345Y-67758630D02*
X216919345Y-66758630D01*
X216347916Y-67758630D02*
X216776488Y-67187202D01*
X216347916Y-66758630D02*
X216919345Y-67330059D01*
X215871726Y-67758630D02*
X215681250Y-67758630D01*
X215586011Y-67711011D01*
X215538392Y-67663392D01*
X215443154Y-67520535D01*
X215395535Y-67330059D01*
X215395535Y-66949107D01*
X215443154Y-66853869D01*
X215490773Y-66806250D01*
X215586011Y-66758630D01*
X215776488Y-66758630D01*
X215871726Y-66806250D01*
X215919345Y-66853869D01*
X215966964Y-66949107D01*
X215966964Y-67187202D01*
X215919345Y-67282440D01*
X215871726Y-67330059D01*
X215776488Y-67377678D01*
X215586011Y-67377678D01*
X215490773Y-67330059D01*
X215443154Y-67282440D01*
X215395535Y-67187202D01*
X206179904Y-105458000D02*
X206275142Y-105410380D01*
X206418000Y-105410380D01*
X206560857Y-105458000D01*
X206656095Y-105553238D01*
X206703714Y-105648476D01*
X206751333Y-105838952D01*
X206751333Y-105981809D01*
X206703714Y-106172285D01*
X206656095Y-106267523D01*
X206560857Y-106362761D01*
X206418000Y-106410380D01*
X206322761Y-106410380D01*
X206179904Y-106362761D01*
X206132285Y-106315142D01*
X206132285Y-105981809D01*
X206322761Y-105981809D01*
X205703714Y-106410380D02*
X205703714Y-105410380D01*
X205132285Y-106410380D01*
X205132285Y-105410380D01*
X204656095Y-106410380D02*
X204656095Y-105410380D01*
X204418000Y-105410380D01*
X204275142Y-105458000D01*
X204179904Y-105553238D01*
X204132285Y-105648476D01*
X204084666Y-105838952D01*
X204084666Y-105981809D01*
X204132285Y-106172285D01*
X204179904Y-106267523D01*
X204275142Y-106362761D01*
X204418000Y-106410380D01*
X204656095Y-106410380D01*
X198453714Y-108862761D02*
X198310857Y-108910380D01*
X198072761Y-108910380D01*
X197977523Y-108862761D01*
X197929904Y-108815142D01*
X197882285Y-108719904D01*
X197882285Y-108624666D01*
X197929904Y-108529428D01*
X197977523Y-108481809D01*
X198072761Y-108434190D01*
X198263238Y-108386571D01*
X198358476Y-108338952D01*
X198406095Y-108291333D01*
X198453714Y-108196095D01*
X198453714Y-108100857D01*
X198406095Y-108005619D01*
X198358476Y-107958000D01*
X198263238Y-107910380D01*
X198025142Y-107910380D01*
X197882285Y-107958000D01*
X196882285Y-108815142D02*
X196929904Y-108862761D01*
X197072761Y-108910380D01*
X197168000Y-108910380D01*
X197310857Y-108862761D01*
X197406095Y-108767523D01*
X197453714Y-108672285D01*
X197501333Y-108481809D01*
X197501333Y-108338952D01*
X197453714Y-108148476D01*
X197406095Y-108053238D01*
X197310857Y-107958000D01*
X197168000Y-107910380D01*
X197072761Y-107910380D01*
X196929904Y-107958000D01*
X196882285Y-108005619D01*
X196453714Y-108910380D02*
X196453714Y-107910380D01*
X195882285Y-108910380D02*
X196310857Y-108338952D01*
X195882285Y-107910380D02*
X196453714Y-108481809D01*
X206989428Y-108910380D02*
X206989428Y-107910380D01*
X206656095Y-108624666D01*
X206322761Y-107910380D01*
X206322761Y-108910380D01*
X205656095Y-107910380D02*
X205465619Y-107910380D01*
X205370380Y-107958000D01*
X205275142Y-108053238D01*
X205227523Y-108243714D01*
X205227523Y-108577047D01*
X205275142Y-108767523D01*
X205370380Y-108862761D01*
X205465619Y-108910380D01*
X205656095Y-108910380D01*
X205751333Y-108862761D01*
X205846571Y-108767523D01*
X205894190Y-108577047D01*
X205894190Y-108243714D01*
X205846571Y-108053238D01*
X205751333Y-107958000D01*
X205656095Y-107910380D01*
X204846571Y-108862761D02*
X204703714Y-108910380D01*
X204465619Y-108910380D01*
X204370380Y-108862761D01*
X204322761Y-108815142D01*
X204275142Y-108719904D01*
X204275142Y-108624666D01*
X204322761Y-108529428D01*
X204370380Y-108481809D01*
X204465619Y-108434190D01*
X204656095Y-108386571D01*
X204751333Y-108338952D01*
X204798952Y-108291333D01*
X204846571Y-108196095D01*
X204846571Y-108100857D01*
X204798952Y-108005619D01*
X204751333Y-107958000D01*
X204656095Y-107910380D01*
X204418000Y-107910380D01*
X204275142Y-107958000D01*
X203846571Y-108910380D02*
X203846571Y-107910380D01*
X197465619Y-106410380D02*
X197798952Y-105934190D01*
X198037047Y-106410380D02*
X198037047Y-105410380D01*
X197656095Y-105410380D01*
X197560857Y-105458000D01*
X197513238Y-105505619D01*
X197465619Y-105600857D01*
X197465619Y-105743714D01*
X197513238Y-105838952D01*
X197560857Y-105886571D01*
X197656095Y-105934190D01*
X198037047Y-105934190D01*
X197084666Y-106362761D02*
X196941809Y-106410380D01*
X196703714Y-106410380D01*
X196608476Y-106362761D01*
X196560857Y-106315142D01*
X196513238Y-106219904D01*
X196513238Y-106124666D01*
X196560857Y-106029428D01*
X196608476Y-105981809D01*
X196703714Y-105934190D01*
X196894190Y-105886571D01*
X196989428Y-105838952D01*
X197037047Y-105791333D01*
X197084666Y-105696095D01*
X197084666Y-105600857D01*
X197037047Y-105505619D01*
X196989428Y-105458000D01*
X196894190Y-105410380D01*
X196656095Y-105410380D01*
X196513238Y-105458000D01*
X196227523Y-105410380D02*
X195656095Y-105410380D01*
X195941809Y-106410380D02*
X195941809Y-105410380D01*
X198489428Y-111410380D02*
X198489428Y-110410380D01*
X198156095Y-111124666D01*
X197822761Y-110410380D01*
X197822761Y-111410380D01*
X197346571Y-111410380D02*
X197346571Y-110410380D01*
X196918000Y-111362761D02*
X196775142Y-111410380D01*
X196537047Y-111410380D01*
X196441809Y-111362761D01*
X196394190Y-111315142D01*
X196346571Y-111219904D01*
X196346571Y-111124666D01*
X196394190Y-111029428D01*
X196441809Y-110981809D01*
X196537047Y-110934190D01*
X196727523Y-110886571D01*
X196822761Y-110838952D01*
X196870380Y-110791333D01*
X196918000Y-110696095D01*
X196918000Y-110600857D01*
X196870380Y-110505619D01*
X196822761Y-110458000D01*
X196727523Y-110410380D01*
X196489428Y-110410380D01*
X196346571Y-110458000D01*
X195727523Y-110410380D02*
X195537047Y-110410380D01*
X195441809Y-110458000D01*
X195346571Y-110553238D01*
X195298952Y-110743714D01*
X195298952Y-111077047D01*
X195346571Y-111267523D01*
X195441809Y-111362761D01*
X195537047Y-111410380D01*
X195727523Y-111410380D01*
X195822761Y-111362761D01*
X195918000Y-111267523D01*
X195965619Y-111077047D01*
X195965619Y-110743714D01*
X195918000Y-110553238D01*
X195822761Y-110458000D01*
X195727523Y-110410380D01*
X206501333Y-110410380D02*
X206168000Y-111410380D01*
X205834666Y-110410380D01*
X204929904Y-111315142D02*
X204977523Y-111362761D01*
X205120380Y-111410380D01*
X205215619Y-111410380D01*
X205358476Y-111362761D01*
X205453714Y-111267523D01*
X205501333Y-111172285D01*
X205548952Y-110981809D01*
X205548952Y-110838952D01*
X205501333Y-110648476D01*
X205453714Y-110553238D01*
X205358476Y-110458000D01*
X205215619Y-110410380D01*
X205120380Y-110410380D01*
X204977523Y-110458000D01*
X204929904Y-110505619D01*
X203929904Y-111315142D02*
X203977523Y-111362761D01*
X204120380Y-111410380D01*
X204215619Y-111410380D01*
X204358476Y-111362761D01*
X204453714Y-111267523D01*
X204501333Y-111172285D01*
X204548952Y-110981809D01*
X204548952Y-110838952D01*
X204501333Y-110648476D01*
X204453714Y-110553238D01*
X204358476Y-110458000D01*
X204215619Y-110410380D01*
X204120380Y-110410380D01*
X203977523Y-110458000D01*
X203929904Y-110505619D01*
X107858035Y-86808630D02*
X107858035Y-85808630D01*
X107286607Y-86808630D02*
X107715178Y-86237202D01*
X107286607Y-85808630D02*
X107858035Y-86380059D01*
X106334226Y-86808630D02*
X106905654Y-86808630D01*
X106619940Y-86808630D02*
X106619940Y-85808630D01*
X106715178Y-85951488D01*
X106810416Y-86046726D01*
X106905654Y-86094345D01*
X106000892Y-85808630D02*
X105381845Y-85808630D01*
X105715178Y-86189583D01*
X105572321Y-86189583D01*
X105477083Y-86237202D01*
X105429464Y-86284821D01*
X105381845Y-86380059D01*
X105381845Y-86618154D01*
X105429464Y-86713392D01*
X105477083Y-86761011D01*
X105572321Y-86808630D01*
X105858035Y-86808630D01*
X105953273Y-86761011D01*
X106000892Y-86713392D01*
X155483035Y-105858630D02*
X155483035Y-104858630D01*
X154911607Y-105858630D02*
X155340178Y-105287202D01*
X154911607Y-104858630D02*
X155483035Y-105430059D01*
X154530654Y-104953869D02*
X154483035Y-104906250D01*
X154387797Y-104858630D01*
X154149702Y-104858630D01*
X154054464Y-104906250D01*
X154006845Y-104953869D01*
X153959226Y-105049107D01*
X153959226Y-105144345D01*
X154006845Y-105287202D01*
X154578273Y-105858630D01*
X153959226Y-105858630D01*
X153102083Y-105191964D02*
X153102083Y-105858630D01*
X153340178Y-104811011D02*
X153578273Y-105525297D01*
X152959226Y-105525297D01*
X178819345Y-67758630D02*
X178819345Y-66758630D01*
X178247916Y-67758630D02*
X178676488Y-67187202D01*
X178247916Y-66758630D02*
X178819345Y-67330059D01*
X177914583Y-66758630D02*
X177247916Y-66758630D01*
X177676488Y-67758630D01*
X153101785Y-124908630D02*
X153101785Y-123908630D01*
X152530357Y-124908630D02*
X152958928Y-124337202D01*
X152530357Y-123908630D02*
X153101785Y-124480059D01*
X152149404Y-124003869D02*
X152101785Y-123956250D01*
X152006547Y-123908630D01*
X151768452Y-123908630D01*
X151673214Y-123956250D01*
X151625595Y-124003869D01*
X151577976Y-124099107D01*
X151577976Y-124194345D01*
X151625595Y-124337202D01*
X152197023Y-124908630D01*
X151577976Y-124908630D01*
X151244642Y-123908630D02*
X150577976Y-123908630D01*
X151006547Y-124908630D01*
X222158035Y-86808630D02*
X222158035Y-85808630D01*
X221586607Y-86808630D02*
X222015178Y-86237202D01*
X221586607Y-85808630D02*
X222158035Y-86380059D01*
X220634226Y-86808630D02*
X221205654Y-86808630D01*
X220919940Y-86808630D02*
X220919940Y-85808630D01*
X221015178Y-85951488D01*
X221110416Y-86046726D01*
X221205654Y-86094345D01*
X220158035Y-86808630D02*
X219967559Y-86808630D01*
X219872321Y-86761011D01*
X219824702Y-86713392D01*
X219729464Y-86570535D01*
X219681845Y-86380059D01*
X219681845Y-85999107D01*
X219729464Y-85903869D01*
X219777083Y-85856250D01*
X219872321Y-85808630D01*
X220062797Y-85808630D01*
X220158035Y-85856250D01*
X220205654Y-85903869D01*
X220253273Y-85999107D01*
X220253273Y-86237202D01*
X220205654Y-86332440D01*
X220158035Y-86380059D01*
X220062797Y-86427678D01*
X219872321Y-86427678D01*
X219777083Y-86380059D01*
X219729464Y-86332440D01*
X219681845Y-86237202D01*
X117383035Y-105858630D02*
X117383035Y-104858630D01*
X116811607Y-105858630D02*
X117240178Y-105287202D01*
X116811607Y-104858630D02*
X117383035Y-105430059D01*
X116430654Y-104953869D02*
X116383035Y-104906250D01*
X116287797Y-104858630D01*
X116049702Y-104858630D01*
X115954464Y-104906250D01*
X115906845Y-104953869D01*
X115859226Y-105049107D01*
X115859226Y-105144345D01*
X115906845Y-105287202D01*
X116478273Y-105858630D01*
X115859226Y-105858630D01*
X115478273Y-104953869D02*
X115430654Y-104906250D01*
X115335416Y-104858630D01*
X115097321Y-104858630D01*
X115002083Y-104906250D01*
X114954464Y-104953869D01*
X114906845Y-105049107D01*
X114906845Y-105144345D01*
X114954464Y-105287202D01*
X115525892Y-105858630D01*
X114906845Y-105858630D01*
X136433035Y-105858630D02*
X136433035Y-104858630D01*
X135861607Y-105858630D02*
X136290178Y-105287202D01*
X135861607Y-104858630D02*
X136433035Y-105430059D01*
X135480654Y-104953869D02*
X135433035Y-104906250D01*
X135337797Y-104858630D01*
X135099702Y-104858630D01*
X135004464Y-104906250D01*
X134956845Y-104953869D01*
X134909226Y-105049107D01*
X134909226Y-105144345D01*
X134956845Y-105287202D01*
X135528273Y-105858630D01*
X134909226Y-105858630D01*
X134575892Y-104858630D02*
X133956845Y-104858630D01*
X134290178Y-105239583D01*
X134147321Y-105239583D01*
X134052083Y-105287202D01*
X134004464Y-105334821D01*
X133956845Y-105430059D01*
X133956845Y-105668154D01*
X134004464Y-105763392D01*
X134052083Y-105811011D01*
X134147321Y-105858630D01*
X134433035Y-105858630D01*
X134528273Y-105811011D01*
X134575892Y-105763392D01*
X98333035Y-105858630D02*
X98333035Y-104858630D01*
X97761607Y-105858630D02*
X98190178Y-105287202D01*
X97761607Y-104858630D02*
X98333035Y-105430059D01*
X97380654Y-104953869D02*
X97333035Y-104906250D01*
X97237797Y-104858630D01*
X96999702Y-104858630D01*
X96904464Y-104906250D01*
X96856845Y-104953869D01*
X96809226Y-105049107D01*
X96809226Y-105144345D01*
X96856845Y-105287202D01*
X97428273Y-105858630D01*
X96809226Y-105858630D01*
X95856845Y-105858630D02*
X96428273Y-105858630D01*
X96142559Y-105858630D02*
X96142559Y-104858630D01*
X96237797Y-105001488D01*
X96333035Y-105096726D01*
X96428273Y-105144345D01*
X121669345Y-67758630D02*
X121669345Y-66758630D01*
X121097916Y-67758630D02*
X121526488Y-67187202D01*
X121097916Y-66758630D02*
X121669345Y-67330059D01*
X120240773Y-67091964D02*
X120240773Y-67758630D01*
X120478869Y-66711011D02*
X120716964Y-67425297D01*
X120097916Y-67425297D01*
X203108035Y-86808630D02*
X203108035Y-85808630D01*
X202536607Y-86808630D02*
X202965178Y-86237202D01*
X202536607Y-85808630D02*
X203108035Y-86380059D01*
X201584226Y-86808630D02*
X202155654Y-86808630D01*
X201869940Y-86808630D02*
X201869940Y-85808630D01*
X201965178Y-85951488D01*
X202060416Y-86046726D01*
X202155654Y-86094345D01*
X201012797Y-86237202D02*
X201108035Y-86189583D01*
X201155654Y-86141964D01*
X201203273Y-86046726D01*
X201203273Y-85999107D01*
X201155654Y-85903869D01*
X201108035Y-85856250D01*
X201012797Y-85808630D01*
X200822321Y-85808630D01*
X200727083Y-85856250D01*
X200679464Y-85903869D01*
X200631845Y-85999107D01*
X200631845Y-86046726D01*
X200679464Y-86141964D01*
X200727083Y-86189583D01*
X200822321Y-86237202D01*
X201012797Y-86237202D01*
X201108035Y-86284821D01*
X201155654Y-86332440D01*
X201203273Y-86427678D01*
X201203273Y-86618154D01*
X201155654Y-86713392D01*
X201108035Y-86761011D01*
X201012797Y-86808630D01*
X200822321Y-86808630D01*
X200727083Y-86761011D01*
X200679464Y-86713392D01*
X200631845Y-86618154D01*
X200631845Y-86427678D01*
X200679464Y-86332440D01*
X200727083Y-86284821D01*
X200822321Y-86237202D01*
X102619345Y-67758630D02*
X102619345Y-66758630D01*
X102047916Y-67758630D02*
X102476488Y-67187202D01*
X102047916Y-66758630D02*
X102619345Y-67330059D01*
X101714583Y-66758630D02*
X101095535Y-66758630D01*
X101428869Y-67139583D01*
X101286011Y-67139583D01*
X101190773Y-67187202D01*
X101143154Y-67234821D01*
X101095535Y-67330059D01*
X101095535Y-67568154D01*
X101143154Y-67663392D01*
X101190773Y-67711011D01*
X101286011Y-67758630D01*
X101571726Y-67758630D01*
X101666964Y-67711011D01*
X101714583Y-67663392D01*
X145958035Y-86808630D02*
X145958035Y-85808630D01*
X145386607Y-86808630D02*
X145815178Y-86237202D01*
X145386607Y-85808630D02*
X145958035Y-86380059D01*
X144434226Y-86808630D02*
X145005654Y-86808630D01*
X144719940Y-86808630D02*
X144719940Y-85808630D01*
X144815178Y-85951488D01*
X144910416Y-86046726D01*
X145005654Y-86094345D01*
X143529464Y-85808630D02*
X144005654Y-85808630D01*
X144053273Y-86284821D01*
X144005654Y-86237202D01*
X143910416Y-86189583D01*
X143672321Y-86189583D01*
X143577083Y-86237202D01*
X143529464Y-86284821D01*
X143481845Y-86380059D01*
X143481845Y-86618154D01*
X143529464Y-86713392D01*
X143577083Y-86761011D01*
X143672321Y-86808630D01*
X143910416Y-86808630D01*
X144005654Y-86761011D01*
X144053273Y-86713392D01*
X83569345Y-67758630D02*
X83569345Y-66758630D01*
X82997916Y-67758630D02*
X83426488Y-67187202D01*
X82997916Y-66758630D02*
X83569345Y-67330059D01*
X82616964Y-66853869D02*
X82569345Y-66806250D01*
X82474107Y-66758630D01*
X82236011Y-66758630D01*
X82140773Y-66806250D01*
X82093154Y-66853869D01*
X82045535Y-66949107D01*
X82045535Y-67044345D01*
X82093154Y-67187202D01*
X82664583Y-67758630D01*
X82045535Y-67758630D01*
X79283035Y-105858630D02*
X79283035Y-104858630D01*
X78711607Y-105858630D02*
X79140178Y-105287202D01*
X78711607Y-104858630D02*
X79283035Y-105430059D01*
X78330654Y-104953869D02*
X78283035Y-104906250D01*
X78187797Y-104858630D01*
X77949702Y-104858630D01*
X77854464Y-104906250D01*
X77806845Y-104953869D01*
X77759226Y-105049107D01*
X77759226Y-105144345D01*
X77806845Y-105287202D01*
X78378273Y-105858630D01*
X77759226Y-105858630D01*
X77140178Y-104858630D02*
X77044940Y-104858630D01*
X76949702Y-104906250D01*
X76902083Y-104953869D01*
X76854464Y-105049107D01*
X76806845Y-105239583D01*
X76806845Y-105477678D01*
X76854464Y-105668154D01*
X76902083Y-105763392D01*
X76949702Y-105811011D01*
X77044940Y-105858630D01*
X77140178Y-105858630D01*
X77235416Y-105811011D01*
X77283035Y-105763392D01*
X77330654Y-105668154D01*
X77378273Y-105477678D01*
X77378273Y-105239583D01*
X77330654Y-105049107D01*
X77283035Y-104953869D01*
X77235416Y-104906250D01*
X77140178Y-104858630D01*
X184058035Y-86808630D02*
X184058035Y-85808630D01*
X183486607Y-86808630D02*
X183915178Y-86237202D01*
X183486607Y-85808630D02*
X184058035Y-86380059D01*
X182534226Y-86808630D02*
X183105654Y-86808630D01*
X182819940Y-86808630D02*
X182819940Y-85808630D01*
X182915178Y-85951488D01*
X183010416Y-86046726D01*
X183105654Y-86094345D01*
X182200892Y-85808630D02*
X181534226Y-85808630D01*
X181962797Y-86808630D01*
X193583035Y-105858630D02*
X193583035Y-104858630D01*
X193011607Y-105858630D02*
X193440178Y-105287202D01*
X193011607Y-104858630D02*
X193583035Y-105430059D01*
X192630654Y-104953869D02*
X192583035Y-104906250D01*
X192487797Y-104858630D01*
X192249702Y-104858630D01*
X192154464Y-104906250D01*
X192106845Y-104953869D01*
X192059226Y-105049107D01*
X192059226Y-105144345D01*
X192106845Y-105287202D01*
X192678273Y-105858630D01*
X192059226Y-105858630D01*
X191202083Y-104858630D02*
X191392559Y-104858630D01*
X191487797Y-104906250D01*
X191535416Y-104953869D01*
X191630654Y-105096726D01*
X191678273Y-105287202D01*
X191678273Y-105668154D01*
X191630654Y-105763392D01*
X191583035Y-105811011D01*
X191487797Y-105858630D01*
X191297321Y-105858630D01*
X191202083Y-105811011D01*
X191154464Y-105763392D01*
X191106845Y-105668154D01*
X191106845Y-105430059D01*
X191154464Y-105334821D01*
X191202083Y-105287202D01*
X191297321Y-105239583D01*
X191487797Y-105239583D01*
X191583035Y-105287202D01*
X191630654Y-105334821D01*
X191678273Y-105430059D01*
X64519345Y-67758630D02*
X64519345Y-66758630D01*
X63947916Y-67758630D02*
X64376488Y-67187202D01*
X63947916Y-66758630D02*
X64519345Y-67330059D01*
X62995535Y-67758630D02*
X63566964Y-67758630D01*
X63281250Y-67758630D02*
X63281250Y-66758630D01*
X63376488Y-66901488D01*
X63471726Y-66996726D01*
X63566964Y-67044345D01*
X88808035Y-86808630D02*
X88808035Y-85808630D01*
X88236607Y-86808630D02*
X88665178Y-86237202D01*
X88236607Y-85808630D02*
X88808035Y-86380059D01*
X87284226Y-86808630D02*
X87855654Y-86808630D01*
X87569940Y-86808630D02*
X87569940Y-85808630D01*
X87665178Y-85951488D01*
X87760416Y-86046726D01*
X87855654Y-86094345D01*
X86903273Y-85903869D02*
X86855654Y-85856250D01*
X86760416Y-85808630D01*
X86522321Y-85808630D01*
X86427083Y-85856250D01*
X86379464Y-85903869D01*
X86331845Y-85999107D01*
X86331845Y-86094345D01*
X86379464Y-86237202D01*
X86950892Y-86808630D01*
X86331845Y-86808630D01*
X159769345Y-67758630D02*
X159769345Y-66758630D01*
X159197916Y-67758630D02*
X159626488Y-67187202D01*
X159197916Y-66758630D02*
X159769345Y-67330059D01*
X158340773Y-66758630D02*
X158531250Y-66758630D01*
X158626488Y-66806250D01*
X158674107Y-66853869D01*
X158769345Y-66996726D01*
X158816964Y-67187202D01*
X158816964Y-67568154D01*
X158769345Y-67663392D01*
X158721726Y-67711011D01*
X158626488Y-67758630D01*
X158436011Y-67758630D01*
X158340773Y-67711011D01*
X158293154Y-67663392D01*
X158245535Y-67568154D01*
X158245535Y-67330059D01*
X158293154Y-67234821D01*
X158340773Y-67187202D01*
X158436011Y-67139583D01*
X158626488Y-67139583D01*
X158721726Y-67187202D01*
X158769345Y-67234821D01*
X158816964Y-67330059D01*
X140596074Y-65386030D02*
X140596074Y-65856030D01*
X129646074Y-65106030D02*
X129646074Y-64306030D01*
X131646074Y-62306030D02*
X137546074Y-62306030D01*
X129646074Y-67956030D02*
X129646074Y-68196030D01*
X139046074Y-62306030D02*
X140596074Y-62306030D01*
X140596074Y-62306030D02*
X140596074Y-62536030D01*
X140096074Y-66356030D02*
X135531250Y-66356030D01*
X135531250Y-66356030D02*
G75*
G03*
X133236928Y-68196030I-866J-2349332D01*
G01*
X140096074Y-66356030D02*
G75*
G03*
X140596074Y-65856030I-1J500001D01*
G01*
X131646074Y-62306030D02*
G75*
G03*
X129646074Y-64306030I5J-2000005D01*
G01*
X115358574Y-87006030D02*
X115358574Y-87246030D01*
X124758574Y-81356030D02*
X126308574Y-81356030D01*
X126308574Y-84436030D02*
X126308574Y-84906030D01*
X117358574Y-81356030D02*
X123258574Y-81356030D01*
X125808574Y-85406030D02*
X121243750Y-85406030D01*
X115358574Y-84156030D02*
X115358574Y-83356030D01*
X126308574Y-81356030D02*
X126308574Y-81586030D01*
X121243750Y-85406030D02*
G75*
G03*
X118949428Y-87246030I-866J-2349332D01*
G01*
X125808574Y-85406030D02*
G75*
G03*
X126308574Y-84906030I-1J500001D01*
G01*
X117358574Y-81356030D02*
G75*
G03*
X115358574Y-83356030I5J-2000005D01*
G01*
X67608574Y-81356030D02*
X69158574Y-81356030D01*
X69158574Y-81356030D02*
X69158574Y-81586030D01*
X58208574Y-87006030D02*
X58208574Y-87246030D01*
X69158574Y-84436030D02*
X69158574Y-84906030D01*
X58208574Y-84156030D02*
X58208574Y-83356030D01*
X68658574Y-85406030D02*
X64093750Y-85406030D01*
X60208574Y-81356030D02*
X66108574Y-81356030D01*
X60208574Y-81356030D02*
G75*
G03*
X58208574Y-83356030I5J-2000005D01*
G01*
X68658574Y-85406030D02*
G75*
G03*
X69158574Y-84906030I-1J500001D01*
G01*
X64093750Y-85406030D02*
G75*
G03*
X61799428Y-87246030I-866J-2349332D01*
G01*
X172383574Y-100406030D02*
X173933574Y-100406030D01*
X162983574Y-103206030D02*
X162983574Y-102406030D01*
X164983574Y-100406030D02*
X170883574Y-100406030D01*
X173433574Y-104456030D02*
X168868750Y-104456030D01*
X173933574Y-103486030D02*
X173933574Y-103956030D01*
X162983574Y-106056030D02*
X162983574Y-106296030D01*
X173933574Y-100406030D02*
X173933574Y-100636030D01*
X173433574Y-104456030D02*
G75*
G03*
X173933574Y-103956030I-1J500001D01*
G01*
X164983574Y-100406030D02*
G75*
G03*
X162983574Y-102406030I5J-2000005D01*
G01*
X168868750Y-104456030D02*
G75*
G03*
X166574428Y-106296030I-866J-2349332D01*
G01*
X155458574Y-81356030D02*
X161358574Y-81356030D01*
X153458574Y-87006030D02*
X153458574Y-87246030D01*
X164408574Y-84436030D02*
X164408574Y-84906030D01*
X162858574Y-81356030D02*
X164408574Y-81356030D01*
X164408574Y-81356030D02*
X164408574Y-81586030D01*
X153458574Y-84156030D02*
X153458574Y-83356030D01*
X163908574Y-85406030D02*
X159343750Y-85406030D01*
X159343750Y-85406030D02*
G75*
G03*
X157049428Y-87246030I-866J-2349332D01*
G01*
X163908574Y-85406030D02*
G75*
G03*
X164408574Y-84906030I-1J500001D01*
G01*
X155458574Y-81356030D02*
G75*
G03*
X153458574Y-83356030I5J-2000005D01*
G01*
X235346074Y-66356030D02*
X230781250Y-66356030D01*
X234296074Y-62306030D02*
X235846074Y-62306030D01*
X235846074Y-62306030D02*
X235846074Y-62536030D01*
X235846074Y-65386030D02*
X235846074Y-65856030D01*
X224896074Y-65106030D02*
X224896074Y-64306030D01*
X226896074Y-62306030D02*
X232796074Y-62306030D01*
X224896074Y-67956030D02*
X224896074Y-68196030D01*
X230781250Y-66356030D02*
G75*
G03*
X228486928Y-68196030I-866J-2349332D01*
G01*
X235346074Y-66356030D02*
G75*
G03*
X235846074Y-65856030I-1J500001D01*
G01*
X226896074Y-62306030D02*
G75*
G03*
X224896074Y-64306030I5J-2000005D01*
G01*
X188796074Y-62306030D02*
X194696074Y-62306030D01*
X186796074Y-67956030D02*
X186796074Y-68196030D01*
X197746074Y-62306030D02*
X197746074Y-62536030D01*
X196196074Y-62306030D02*
X197746074Y-62306030D01*
X197746074Y-65386030D02*
X197746074Y-65856030D01*
X186796074Y-65106030D02*
X186796074Y-64306030D01*
X197246074Y-66356030D02*
X192681250Y-66356030D01*
X188796074Y-62306030D02*
G75*
G03*
X186796074Y-64306030I5J-2000005D01*
G01*
X197246074Y-66356030D02*
G75*
G03*
X197746074Y-65856030I-1J500001D01*
G01*
X192681250Y-66356030D02*
G75*
G03*
X190386928Y-68196030I-866J-2349332D01*
G01*
X205846074Y-67956030D02*
X205846074Y-68196030D01*
X215246074Y-62306030D02*
X216796074Y-62306030D01*
X205846074Y-65106030D02*
X205846074Y-64306030D01*
X207846074Y-62306030D02*
X213746074Y-62306030D01*
X216296074Y-66356030D02*
X211731250Y-66356030D01*
X216796074Y-62306030D02*
X216796074Y-62536030D01*
X216796074Y-65386030D02*
X216796074Y-65856030D01*
X211731250Y-66356030D02*
G75*
G03*
X209436928Y-68196030I-866J-2349332D01*
G01*
X207846074Y-62306030D02*
G75*
G03*
X205846074Y-64306030I5J-2000005D01*
G01*
X216296074Y-66356030D02*
G75*
G03*
X216796074Y-65856030I-1J500001D01*
G01*
D11*
X203668000Y-107208000D02*
X203668000Y-104708000D01*
X198668000Y-107208000D02*
X203668000Y-107208000D01*
X198668000Y-104708000D02*
X198668000Y-107208000D01*
X203668000Y-104708000D02*
X198668000Y-104708000D01*
D10*
X107258574Y-81356030D02*
X107258574Y-81586030D01*
X96308574Y-87006030D02*
X96308574Y-87246030D01*
X106758574Y-85406030D02*
X102193750Y-85406030D01*
X96308574Y-84156030D02*
X96308574Y-83356030D01*
X98308574Y-81356030D02*
X104208574Y-81356030D01*
X107258574Y-84436030D02*
X107258574Y-84906030D01*
X105708574Y-81356030D02*
X107258574Y-81356030D01*
X102193750Y-85406030D02*
G75*
G03*
X99899428Y-87246030I-866J-2349332D01*
G01*
X106758574Y-85406030D02*
G75*
G03*
X107258574Y-84906030I-1J500001D01*
G01*
X98308574Y-81356030D02*
G75*
G03*
X96308574Y-83356030I5J-2000005D01*
G01*
X154883574Y-100406030D02*
X154883574Y-100636030D01*
X153333574Y-100406030D02*
X154883574Y-100406030D01*
X145933574Y-100406030D02*
X151833574Y-100406030D01*
X154383574Y-104456030D02*
X149818750Y-104456030D01*
X154883574Y-103486030D02*
X154883574Y-103956030D01*
X143933574Y-103206030D02*
X143933574Y-102406030D01*
X143933574Y-106056030D02*
X143933574Y-106296030D01*
X145933574Y-100406030D02*
G75*
G03*
X143933574Y-102406030I5J-2000005D01*
G01*
X154383574Y-104456030D02*
G75*
G03*
X154883574Y-103956030I-1J500001D01*
G01*
X149818750Y-104456030D02*
G75*
G03*
X147524428Y-106296030I-866J-2349332D01*
G01*
X178196074Y-66356030D02*
X173631250Y-66356030D01*
X167746074Y-65106030D02*
X167746074Y-64306030D01*
X177146074Y-62306030D02*
X178696074Y-62306030D01*
X169746074Y-62306030D02*
X175646074Y-62306030D01*
X178696074Y-62306030D02*
X178696074Y-62536030D01*
X178696074Y-65386030D02*
X178696074Y-65856030D01*
X167746074Y-67956030D02*
X167746074Y-68196030D01*
X178196074Y-66356030D02*
G75*
G03*
X178696074Y-65856030I-1J500001D01*
G01*
X173631250Y-66356030D02*
G75*
G03*
X171336928Y-68196030I-866J-2349332D01*
G01*
X169746074Y-62306030D02*
G75*
G03*
X167746074Y-64306030I5J-2000005D01*
G01*
X141552324Y-125106030D02*
X141552324Y-125346030D01*
X143552324Y-119456030D02*
X149452324Y-119456030D01*
X152502324Y-122536030D02*
X152502324Y-123006030D01*
X141552324Y-122256030D02*
X141552324Y-121456030D01*
X152502324Y-119456030D02*
X152502324Y-119686030D01*
X152002324Y-123506030D02*
X147437500Y-123506030D01*
X150952324Y-119456030D02*
X152502324Y-119456030D01*
X143552324Y-119456030D02*
G75*
G03*
X141552324Y-121456030I5J-2000005D01*
G01*
X152002324Y-123506030D02*
G75*
G03*
X152502324Y-123006030I-1J500001D01*
G01*
X147437500Y-123506030D02*
G75*
G03*
X145143178Y-125346030I-866J-2349332D01*
G01*
X210608574Y-84156030D02*
X210608574Y-83356030D01*
X221558574Y-84436030D02*
X221558574Y-84906030D01*
X220008574Y-81356030D02*
X221558574Y-81356030D01*
X221058574Y-85406030D02*
X216493750Y-85406030D01*
X212608574Y-81356030D02*
X218508574Y-81356030D01*
X221558574Y-81356030D02*
X221558574Y-81586030D01*
X210608574Y-87006030D02*
X210608574Y-87246030D01*
X212608574Y-81356030D02*
G75*
G03*
X210608574Y-83356030I5J-2000005D01*
G01*
X221058574Y-85406030D02*
G75*
G03*
X221558574Y-84906030I-1J500001D01*
G01*
X216493750Y-85406030D02*
G75*
G03*
X214199428Y-87246030I-866J-2349332D01*
G01*
X116783574Y-103486030D02*
X116783574Y-103956030D01*
X116283574Y-104456030D02*
X111718750Y-104456030D01*
X116783574Y-100406030D02*
X116783574Y-100636030D01*
X115233574Y-100406030D02*
X116783574Y-100406030D01*
X105833574Y-106056030D02*
X105833574Y-106296030D01*
X107833574Y-100406030D02*
X113733574Y-100406030D01*
X105833574Y-103206030D02*
X105833574Y-102406030D01*
X107833574Y-100406030D02*
G75*
G03*
X105833574Y-102406030I5J-2000005D01*
G01*
X116283574Y-104456030D02*
G75*
G03*
X116783574Y-103956030I-1J500001D01*
G01*
X111718750Y-104456030D02*
G75*
G03*
X109424428Y-106296030I-866J-2349332D01*
G01*
X134283574Y-100406030D02*
X135833574Y-100406030D01*
X124883574Y-106056030D02*
X124883574Y-106296030D01*
X135833574Y-100406030D02*
X135833574Y-100636030D01*
X126883574Y-100406030D02*
X132783574Y-100406030D01*
X124883574Y-103206030D02*
X124883574Y-102406030D01*
X135333574Y-104456030D02*
X130768750Y-104456030D01*
X135833574Y-103486030D02*
X135833574Y-103956030D01*
X126883574Y-100406030D02*
G75*
G03*
X124883574Y-102406030I5J-2000005D01*
G01*
X135333574Y-104456030D02*
G75*
G03*
X135833574Y-103956030I-1J500001D01*
G01*
X130768750Y-104456030D02*
G75*
G03*
X128474428Y-106296030I-866J-2349332D01*
G01*
X97233574Y-104456030D02*
X92668750Y-104456030D01*
X88783574Y-100406030D02*
X94683574Y-100406030D01*
X97733574Y-100406030D02*
X97733574Y-100636030D01*
X96183574Y-100406030D02*
X97733574Y-100406030D01*
X86783574Y-106056030D02*
X86783574Y-106296030D01*
X86783574Y-103206030D02*
X86783574Y-102406030D01*
X97733574Y-103486030D02*
X97733574Y-103956030D01*
X88783574Y-100406030D02*
G75*
G03*
X86783574Y-102406030I5J-2000005D01*
G01*
X97233574Y-104456030D02*
G75*
G03*
X97733574Y-103956030I-1J500001D01*
G01*
X92668750Y-104456030D02*
G75*
G03*
X90374428Y-106296030I-866J-2349332D01*
G01*
X121046074Y-66356030D02*
X116481250Y-66356030D01*
X121546074Y-65386030D02*
X121546074Y-65856030D01*
X119996074Y-62306030D02*
X121546074Y-62306030D01*
X110596074Y-65106030D02*
X110596074Y-64306030D01*
X112596074Y-62306030D02*
X118496074Y-62306030D01*
X110596074Y-67956030D02*
X110596074Y-68196030D01*
X121546074Y-62306030D02*
X121546074Y-62536030D01*
X112596074Y-62306030D02*
G75*
G03*
X110596074Y-64306030I5J-2000005D01*
G01*
X116481250Y-66356030D02*
G75*
G03*
X114186928Y-68196030I-866J-2349332D01*
G01*
X121046074Y-66356030D02*
G75*
G03*
X121546074Y-65856030I-1J500001D01*
G01*
X193558574Y-81356030D02*
X199458574Y-81356030D01*
X202008574Y-85406030D02*
X197443750Y-85406030D01*
X191558574Y-87006030D02*
X191558574Y-87246030D01*
X202508574Y-84436030D02*
X202508574Y-84906030D01*
X202508574Y-81356030D02*
X202508574Y-81586030D01*
X191558574Y-84156030D02*
X191558574Y-83356030D01*
X200958574Y-81356030D02*
X202508574Y-81356030D01*
X193558574Y-81356030D02*
G75*
G03*
X191558574Y-83356030I5J-2000005D01*
G01*
X202008574Y-85406030D02*
G75*
G03*
X202508574Y-84906030I-1J500001D01*
G01*
X197443750Y-85406030D02*
G75*
G03*
X195149428Y-87246030I-866J-2349332D01*
G01*
X91546074Y-67956030D02*
X91546074Y-68196030D01*
X101996074Y-66356030D02*
X97431250Y-66356030D01*
X100946074Y-62306030D02*
X102496074Y-62306030D01*
X91546074Y-65106030D02*
X91546074Y-64306030D01*
X102496074Y-65386030D02*
X102496074Y-65856030D01*
X93546074Y-62306030D02*
X99446074Y-62306030D01*
X102496074Y-62306030D02*
X102496074Y-62536030D01*
X101996074Y-66356030D02*
G75*
G03*
X102496074Y-65856030I-1J500001D01*
G01*
X93546074Y-62306030D02*
G75*
G03*
X91546074Y-64306030I5J-2000005D01*
G01*
X97431250Y-66356030D02*
G75*
G03*
X95136928Y-68196030I-866J-2349332D01*
G01*
X143808574Y-81356030D02*
X145358574Y-81356030D01*
X145358574Y-81356030D02*
X145358574Y-81586030D01*
X145358574Y-84436030D02*
X145358574Y-84906030D01*
X144858574Y-85406030D02*
X140293750Y-85406030D01*
X134408574Y-87006030D02*
X134408574Y-87246030D01*
X136408574Y-81356030D02*
X142308574Y-81356030D01*
X134408574Y-84156030D02*
X134408574Y-83356030D01*
X140293750Y-85406030D02*
G75*
G03*
X137999428Y-87246030I-866J-2349332D01*
G01*
X144858574Y-85406030D02*
G75*
G03*
X145358574Y-84906030I-1J500001D01*
G01*
X136408574Y-81356030D02*
G75*
G03*
X134408574Y-83356030I5J-2000005D01*
G01*
X83446074Y-65386030D02*
X83446074Y-65856030D01*
X72496074Y-67956030D02*
X72496074Y-68196030D01*
X82946074Y-66356030D02*
X78381250Y-66356030D01*
X74496074Y-62306030D02*
X80396074Y-62306030D01*
X72496074Y-65106030D02*
X72496074Y-64306030D01*
X83446074Y-62306030D02*
X83446074Y-62536030D01*
X81896074Y-62306030D02*
X83446074Y-62306030D01*
X82946074Y-66356030D02*
G75*
G03*
X83446074Y-65856030I-1J500001D01*
G01*
X74496074Y-62306030D02*
G75*
G03*
X72496074Y-64306030I5J-2000005D01*
G01*
X78381250Y-66356030D02*
G75*
G03*
X76086928Y-68196030I-866J-2349332D01*
G01*
X67733574Y-103206030D02*
X67733574Y-102406030D01*
X78183574Y-104456030D02*
X73618750Y-104456030D01*
X77133574Y-100406030D02*
X78683574Y-100406030D01*
X78683574Y-103486030D02*
X78683574Y-103956030D01*
X67733574Y-106056030D02*
X67733574Y-106296030D01*
X69733574Y-100406030D02*
X75633574Y-100406030D01*
X78683574Y-100406030D02*
X78683574Y-100636030D01*
X73618750Y-104456030D02*
G75*
G03*
X71324428Y-106296030I-866J-2349332D01*
G01*
X69733574Y-100406030D02*
G75*
G03*
X67733574Y-102406030I5J-2000005D01*
G01*
X78183574Y-104456030D02*
G75*
G03*
X78683574Y-103956030I-1J500001D01*
G01*
X172508574Y-87006030D02*
X172508574Y-87246030D01*
X172508574Y-84156030D02*
X172508574Y-83356030D01*
X183458574Y-84436030D02*
X183458574Y-84906030D01*
X181908574Y-81356030D02*
X183458574Y-81356030D01*
X174508574Y-81356030D02*
X180408574Y-81356030D01*
X183458574Y-81356030D02*
X183458574Y-81586030D01*
X182958574Y-85406030D02*
X178393750Y-85406030D01*
X174508574Y-81356030D02*
G75*
G03*
X172508574Y-83356030I5J-2000005D01*
G01*
X178393750Y-85406030D02*
G75*
G03*
X176099428Y-87246030I-866J-2349332D01*
G01*
X182958574Y-85406030D02*
G75*
G03*
X183458574Y-84906030I-1J500001D01*
G01*
X182033574Y-106056030D02*
X182033574Y-106296030D01*
X191433574Y-100406030D02*
X192983574Y-100406030D01*
X192983574Y-100406030D02*
X192983574Y-100636030D01*
X192983574Y-103486030D02*
X192983574Y-103956030D01*
X192483574Y-104456030D02*
X187918750Y-104456030D01*
X182033574Y-103206030D02*
X182033574Y-102406030D01*
X184033574Y-100406030D02*
X189933574Y-100406030D01*
X187918750Y-104456030D02*
G75*
G03*
X185624428Y-106296030I-866J-2349332D01*
G01*
X192483574Y-104456030D02*
G75*
G03*
X192983574Y-103956030I-1J500001D01*
G01*
X184033574Y-100406030D02*
G75*
G03*
X182033574Y-102406030I5J-2000005D01*
G01*
X53446074Y-65106030D02*
X53446074Y-64306030D01*
X64396074Y-62306030D02*
X64396074Y-62536030D01*
X64396074Y-65386030D02*
X64396074Y-65856030D01*
X63896074Y-66356030D02*
X59331250Y-66356030D01*
X62846074Y-62306030D02*
X64396074Y-62306030D01*
X53446074Y-67956030D02*
X53446074Y-68196030D01*
X55446074Y-62306030D02*
X61346074Y-62306030D01*
X55446074Y-62306030D02*
G75*
G03*
X53446074Y-64306030I5J-2000005D01*
G01*
X63896074Y-66356030D02*
G75*
G03*
X64396074Y-65856030I-1J500001D01*
G01*
X59331250Y-66356030D02*
G75*
G03*
X57036928Y-68196030I-866J-2349332D01*
G01*
X77258574Y-87006030D02*
X77258574Y-87246030D01*
X88208574Y-81356030D02*
X88208574Y-81586030D01*
X86658574Y-81356030D02*
X88208574Y-81356030D01*
X79258574Y-81356030D02*
X85158574Y-81356030D01*
X87708574Y-85406030D02*
X83143750Y-85406030D01*
X77258574Y-84156030D02*
X77258574Y-83356030D01*
X88208574Y-84436030D02*
X88208574Y-84906030D01*
X79258574Y-81356030D02*
G75*
G03*
X77258574Y-83356030I5J-2000005D01*
G01*
X83143750Y-85406030D02*
G75*
G03*
X80849428Y-87246030I-866J-2349332D01*
G01*
X87708574Y-85406030D02*
G75*
G03*
X88208574Y-84906030I-1J500001D01*
G01*
X159646074Y-65386030D02*
X159646074Y-65856030D01*
X159646074Y-62306030D02*
X159646074Y-62536030D01*
X158096074Y-62306030D02*
X159646074Y-62306030D01*
X148696074Y-65106030D02*
X148696074Y-64306030D01*
X159146074Y-66356030D02*
X154581250Y-66356030D01*
X148696074Y-67956030D02*
X148696074Y-68196030D01*
X150696074Y-62306030D02*
X156596074Y-62306030D01*
X159146074Y-66356030D02*
G75*
G03*
X159646074Y-65856030I-1J500001D01*
G01*
X154581250Y-66356030D02*
G75*
G03*
X152286928Y-68196030I-866J-2349332D01*
G01*
X150696074Y-62306030D02*
G75*
G03*
X148696074Y-64306030I5J-2000005D01*
G01*
M02*
