G04 #@! TF.GenerationSoftware,KiCad,Pcbnew,(6.0.6)*
G04 #@! TF.CreationDate,2022-08-05T17:16:04-07:00*
G04 #@! TF.ProjectId,bored27-revision,626f7265-6432-4372-9d72-65766973696f,rev?*
G04 #@! TF.SameCoordinates,Original*
G04 #@! TF.FileFunction,Soldermask,Top*
G04 #@! TF.FilePolarity,Negative*
%FSLAX46Y46*%
G04 Gerber Fmt 4.6, Leading zero omitted, Abs format (unit mm)*
G04 Created by KiCad (PCBNEW (6.0.6)) date 2022-08-05 17:16:04*
%MOMM*%
%LPD*%
G01*
G04 APERTURE LIST*
G04 Aperture macros list*
%AMRoundRect*
0 Rectangle with rounded corners*
0 $1 Rounding radius*
0 $2 $3 $4 $5 $6 $7 $8 $9 X,Y pos of 4 corners*
0 Add a 4 corners polygon primitive as box body*
4,1,4,$2,$3,$4,$5,$6,$7,$8,$9,$2,$3,0*
0 Add four circle primitives for the rounded corners*
1,1,$1+$1,$2,$3*
1,1,$1+$1,$4,$5*
1,1,$1+$1,$6,$7*
1,1,$1+$1,$8,$9*
0 Add four rect primitives between the rounded corners*
20,1,$1+$1,$2,$3,$4,$5,0*
20,1,$1+$1,$4,$5,$6,$7,0*
20,1,$1+$1,$6,$7,$8,$9,0*
20,1,$1+$1,$8,$9,$2,$3,0*%
%AMRotRect*
0 Rectangle, with rotation*
0 The origin of the aperture is its center*
0 $1 length*
0 $2 width*
0 $3 Rotation angle, in degrees counterclockwise*
0 Add horizontal line*
21,1,$1,$2,0,0,$3*%
G04 Aperture macros list end*
%ADD10RoundRect,0.250000X0.565685X0.070711X0.070711X0.565685X-0.565685X-0.070711X-0.070711X-0.565685X0*%
%ADD11RoundRect,0.250000X-0.574524X-0.097227X-0.097227X-0.574524X0.574524X0.097227X0.097227X0.574524X0*%
%ADD12R,1.200000X0.900000*%
%ADD13RoundRect,0.250000X-0.070711X0.565685X-0.565685X0.070711X0.070711X-0.565685X0.565685X-0.070711X0*%
%ADD14RoundRect,0.250000X0.450000X-0.325000X0.450000X0.325000X-0.450000X0.325000X-0.450000X-0.325000X0*%
%ADD15RoundRect,0.250000X-0.337500X-0.475000X0.337500X-0.475000X0.337500X0.475000X-0.337500X0.475000X0*%
%ADD16R,1.000000X0.700000*%
%ADD17R,0.600000X0.700000*%
%ADD18RoundRect,0.250000X0.097227X-0.574524X0.574524X-0.097227X-0.097227X0.574524X-0.574524X0.097227X0*%
%ADD19R,1.800000X1.100000*%
%ADD20RoundRect,0.250001X-0.462499X-0.624999X0.462499X-0.624999X0.462499X0.624999X-0.462499X0.624999X0*%
%ADD21RotRect,2.100000X1.800000X135.000000*%
%ADD22RoundRect,0.250000X-0.565685X-0.070711X-0.070711X-0.565685X0.565685X0.070711X0.070711X0.565685X0*%
%ADD23RoundRect,0.250000X-0.450000X0.350000X-0.450000X-0.350000X0.450000X-0.350000X0.450000X0.350000X0*%
%ADD24RoundRect,0.250000X-0.097227X0.574524X-0.574524X0.097227X0.097227X-0.574524X0.574524X-0.097227X0*%
%ADD25C,0.650000*%
%ADD26R,1.450000X0.600000*%
%ADD27R,1.450000X0.300000*%
%ADD28O,1.600000X1.000000*%
%ADD29O,2.100000X1.000000*%
%ADD30RotRect,1.600000X0.550000X225.000000*%
%ADD31RotRect,1.600000X0.550000X315.000000*%
%ADD32RoundRect,0.250000X0.450000X-0.350000X0.450000X0.350000X-0.450000X0.350000X-0.450000X-0.350000X0*%
%ADD33C,1.750000*%
%ADD34C,3.987800*%
%ADD35C,3.300000*%
G04 APERTURE END LIST*
D10*
X220667014Y-113834614D03*
X219252800Y-112420400D03*
D11*
X217734754Y-97846754D03*
X219202000Y-99314000D03*
D12*
X92868750Y-80106250D03*
X92868750Y-83406250D03*
X130968750Y-80106250D03*
X130968750Y-83406250D03*
D13*
X208534000Y-101981000D03*
X207119786Y-103395214D03*
D14*
X236347000Y-106570999D03*
X236347000Y-104520999D03*
D12*
X121443750Y-99156250D03*
X121443750Y-102456250D03*
X67881500Y-61056250D03*
X67881500Y-64356250D03*
X202374500Y-61056250D03*
X202374500Y-64356250D03*
X178593750Y-99156250D03*
X178593750Y-102456250D03*
X126206250Y-61056250D03*
X126206250Y-64356250D03*
D15*
X226441000Y-109474000D03*
X228516000Y-109474000D03*
D12*
X140493750Y-99156250D03*
X140493750Y-102456250D03*
D16*
X226935600Y-115299999D03*
D17*
X228635600Y-115299999D03*
X228635600Y-113299999D03*
X226735600Y-113299999D03*
D12*
X70294500Y-61056250D03*
X70294500Y-64356250D03*
D18*
X226497754Y-99765246D03*
X227965000Y-98298000D03*
D12*
X150018750Y-80106250D03*
X150018750Y-83406250D03*
X183356250Y-61056250D03*
X183356250Y-64356250D03*
X159543750Y-99156250D03*
X159543750Y-102456250D03*
D18*
X224592754Y-97860246D03*
X226060000Y-96393000D03*
D12*
X84582000Y-99156250D03*
X84582000Y-102456250D03*
D19*
X209792500Y-118419000D03*
X203592500Y-118419000D03*
X203592500Y-122119000D03*
X209792500Y-122119000D03*
D20*
X227149000Y-106553000D03*
X230124000Y-106553000D03*
D12*
X102393750Y-99156250D03*
X102393750Y-102456250D03*
D21*
X224935610Y-101618610D03*
X222885000Y-99568000D03*
X221258654Y-101194346D03*
X223309264Y-103244956D03*
D12*
X188118750Y-80106250D03*
X188118750Y-83406250D03*
X75057000Y-80106250D03*
X75057000Y-83406250D03*
X221456250Y-61056250D03*
X221456250Y-64356250D03*
D22*
X210040786Y-114917786D03*
X211455000Y-116332000D03*
D10*
X222140214Y-112361414D03*
X220726000Y-110947200D03*
D12*
X138112500Y-118206250D03*
X138112500Y-121506250D03*
X164274500Y-61056250D03*
X164274500Y-64356250D03*
D23*
X231902000Y-117094000D03*
X231902000Y-119094000D03*
D12*
X82169000Y-99156250D03*
X82169000Y-102456250D03*
X145256250Y-61056250D03*
X145256250Y-64356250D03*
D24*
X218059000Y-114554000D03*
X216591754Y-116021246D03*
D12*
X111918750Y-80106250D03*
X111918750Y-83406250D03*
X207168750Y-80106250D03*
X207168750Y-83406250D03*
D25*
X237112500Y-111410000D03*
X237112500Y-117190000D03*
D26*
X235667500Y-117550000D03*
X235667500Y-116750000D03*
D27*
X235667500Y-115550000D03*
X235667500Y-114550000D03*
X235667500Y-114050000D03*
X235667500Y-113050000D03*
D26*
X235667500Y-111850000D03*
X235667500Y-111050000D03*
X235667500Y-111050000D03*
X235667500Y-111850000D03*
D27*
X235667500Y-112550000D03*
X235667500Y-113550000D03*
X235667500Y-115050000D03*
X235667500Y-116050000D03*
D26*
X235667500Y-116750000D03*
X235667500Y-117550000D03*
D28*
X240762500Y-109980000D03*
D29*
X236582500Y-109980000D03*
X236582500Y-118620000D03*
D28*
X240762500Y-118620000D03*
D24*
X223844246Y-108006754D03*
X222377000Y-109474000D03*
D12*
X169068750Y-80106250D03*
X169068750Y-83406250D03*
D30*
X219297603Y-106130945D03*
X218731917Y-105565260D03*
X218166232Y-104999574D03*
X217600547Y-104433889D03*
X217034861Y-103868203D03*
X216469176Y-103302518D03*
X215903490Y-102736833D03*
X215337805Y-102171147D03*
D31*
X213287195Y-102171147D03*
X212721510Y-102736833D03*
X212155824Y-103302518D03*
X211590139Y-103868203D03*
X211024453Y-104433889D03*
X210458768Y-104999574D03*
X209893083Y-105565260D03*
X209327397Y-106130945D03*
D30*
X209327397Y-108181555D03*
X209893083Y-108747240D03*
X210458768Y-109312926D03*
X211024453Y-109878611D03*
X211590139Y-110444297D03*
X212155824Y-111009982D03*
X212721510Y-111575667D03*
X213287195Y-112141353D03*
D31*
X215337805Y-112141353D03*
X215903490Y-111575667D03*
X216469176Y-111009982D03*
X217034861Y-110444297D03*
X217600547Y-109878611D03*
X218166232Y-109312926D03*
X218731917Y-108747240D03*
X219297603Y-108181555D03*
D12*
X72644000Y-80106250D03*
X72644000Y-83406250D03*
X88106250Y-61056250D03*
X88106250Y-64356250D03*
X107156250Y-61056250D03*
X107156250Y-64356250D03*
D32*
X231902000Y-111601000D03*
X231902000Y-109601000D03*
D33*
X140811250Y-69056250D03*
D34*
X135731250Y-69056250D03*
D33*
X130651250Y-69056250D03*
D35*
X131921250Y-66516250D03*
X138271250Y-63976250D03*
D33*
X116363750Y-88106250D03*
X126523750Y-88106250D03*
D34*
X121443750Y-88106250D03*
D35*
X117633750Y-85566250D03*
X123983750Y-83026250D03*
D33*
X59213750Y-88106250D03*
X69373750Y-88106250D03*
D34*
X64293750Y-88106250D03*
D35*
X60483750Y-85566250D03*
X66833750Y-83026250D03*
D34*
X169068750Y-107156250D03*
D33*
X174148750Y-107156250D03*
X163988750Y-107156250D03*
D35*
X165258750Y-104616250D03*
X171608750Y-102076250D03*
D33*
X164623750Y-88106250D03*
D34*
X159543750Y-88106250D03*
D33*
X154463750Y-88106250D03*
D35*
X155733750Y-85566250D03*
X162083750Y-83026250D03*
D33*
X236061250Y-69056250D03*
X225901250Y-69056250D03*
D34*
X230981250Y-69056250D03*
D35*
X227171250Y-66516250D03*
X233521250Y-63976250D03*
D33*
X197961250Y-69056250D03*
D34*
X192881250Y-69056250D03*
D33*
X187801250Y-69056250D03*
D35*
X189071250Y-66516250D03*
X195421250Y-63976250D03*
D33*
X206851250Y-69056250D03*
X217011250Y-69056250D03*
D34*
X211931250Y-69056250D03*
D35*
X208121250Y-66516250D03*
X214471250Y-63976250D03*
D34*
X102393750Y-88106250D03*
D33*
X97313750Y-88106250D03*
X107473750Y-88106250D03*
D35*
X98583750Y-85566250D03*
X104933750Y-83026250D03*
D33*
X144938750Y-107156250D03*
X155098750Y-107156250D03*
D34*
X150018750Y-107156250D03*
D35*
X146208750Y-104616250D03*
X152558750Y-102076250D03*
D33*
X168751250Y-69056250D03*
D34*
X173831250Y-69056250D03*
D33*
X178911250Y-69056250D03*
D35*
X170021250Y-66516250D03*
X176371250Y-63976250D03*
D34*
X147637500Y-126206250D03*
D33*
X152717500Y-126206250D03*
X142557500Y-126206250D03*
D35*
X143827500Y-123666250D03*
X150177500Y-121126250D03*
D33*
X211613750Y-88106250D03*
D34*
X216693750Y-88106250D03*
D33*
X221773750Y-88106250D03*
D35*
X212883750Y-85566250D03*
X219233750Y-83026250D03*
D33*
X106838750Y-107156250D03*
D34*
X111918750Y-107156250D03*
D33*
X116998750Y-107156250D03*
D35*
X108108750Y-104616250D03*
X114458750Y-102076250D03*
D34*
X130968750Y-107156250D03*
D33*
X125888750Y-107156250D03*
X136048750Y-107156250D03*
D35*
X127158750Y-104616250D03*
X133508750Y-102076250D03*
D33*
X87788750Y-107156250D03*
X97948750Y-107156250D03*
D34*
X92868750Y-107156250D03*
D35*
X89058750Y-104616250D03*
X95408750Y-102076250D03*
D33*
X121761250Y-69056250D03*
D34*
X116681250Y-69056250D03*
D33*
X111601250Y-69056250D03*
D35*
X112871250Y-66516250D03*
X119221250Y-63976250D03*
D34*
X197643750Y-88106250D03*
D33*
X202723750Y-88106250D03*
X192563750Y-88106250D03*
D35*
X193833750Y-85566250D03*
X200183750Y-83026250D03*
D33*
X102711250Y-69056250D03*
D34*
X97631250Y-69056250D03*
D33*
X92551250Y-69056250D03*
D35*
X93821250Y-66516250D03*
X100171250Y-63976250D03*
D33*
X135413750Y-88106250D03*
D34*
X140493750Y-88106250D03*
D33*
X145573750Y-88106250D03*
D35*
X136683750Y-85566250D03*
X143033750Y-83026250D03*
D33*
X83661250Y-69056250D03*
D34*
X78581250Y-69056250D03*
D33*
X73501250Y-69056250D03*
D35*
X74771250Y-66516250D03*
X81121250Y-63976250D03*
D33*
X68738750Y-107156250D03*
D34*
X73818750Y-107156250D03*
D33*
X78898750Y-107156250D03*
D35*
X70008750Y-104616250D03*
X76358750Y-102076250D03*
D33*
X173513750Y-88106250D03*
X183673750Y-88106250D03*
D34*
X178593750Y-88106250D03*
D35*
X174783750Y-85566250D03*
X181133750Y-83026250D03*
D33*
X193198750Y-107156250D03*
D34*
X188118750Y-107156250D03*
D33*
X183038750Y-107156250D03*
D35*
X184308750Y-104616250D03*
X190658750Y-102076250D03*
D33*
X64611250Y-69056250D03*
X54451250Y-69056250D03*
D34*
X59531250Y-69056250D03*
D35*
X55721250Y-66516250D03*
X62071250Y-63976250D03*
D33*
X78263750Y-88106250D03*
X88423750Y-88106250D03*
D34*
X83343750Y-88106250D03*
D35*
X79533750Y-85566250D03*
X85883750Y-83026250D03*
D33*
X149701250Y-69056250D03*
X159861250Y-69056250D03*
D34*
X154781250Y-69056250D03*
D35*
X150971250Y-66516250D03*
X157321250Y-63976250D03*
M02*
