G04 #@! TF.GenerationSoftware,KiCad,Pcbnew,(6.0.6)*
G04 #@! TF.CreationDate,2022-08-05T17:16:04-07:00*
G04 #@! TF.ProjectId,bored27-revision,626f7265-6432-4372-9d72-65766973696f,rev?*
G04 #@! TF.SameCoordinates,Original*
G04 #@! TF.FileFunction,Profile,NP*
%FSLAX46Y46*%
G04 Gerber Fmt 4.6, Leading zero omitted, Abs format (unit mm)*
G04 Created by KiCad (PCBNEW (6.0.6)) date 2022-08-05 17:16:04*
%MOMM*%
%LPD*%
G01*
G04 APERTURE LIST*
G04 #@! TA.AperFunction,Profile*
%ADD10C,0.100000*%
G04 #@! TD*
G04 APERTURE END LIST*
D10*
X63500000Y-115887500D02*
G75*
G03*
X65087500Y-117475000I1587600J100D01*
G01*
X236537495Y-126206315D02*
G75*
G03*
X238114875Y-124618750I110205J1467915D01*
G01*
X53975000Y-80962500D02*
X53975000Y-96837500D01*
X122237500Y-134937500D02*
G75*
G03*
X123825000Y-136525000I1587600J100D01*
G01*
X174625000Y-121443750D02*
X192087500Y-121443750D01*
X239712500Y-120650000D02*
X243713000Y-120650000D01*
X50800000Y-58737500D02*
G75*
G03*
X49212500Y-60325000I0J-1587500D01*
G01*
X243713000Y-107950000D02*
X239712500Y-107950000D01*
X238125000Y-95250000D02*
X238125000Y-106362500D01*
X50800000Y-79375000D02*
X52387500Y-79375000D01*
X174625000Y-121443700D02*
G75*
G03*
X173037500Y-123031250I100J-1587600D01*
G01*
X193675000Y-123031250D02*
X193675000Y-124618750D01*
X193675050Y-123031250D02*
G75*
G03*
X192087500Y-121443750I-1587550J-50D01*
G01*
X241300000Y-77787500D02*
X241300000Y-60325000D01*
X243713000Y-120650000D02*
X243713000Y-107950000D01*
X171450000Y-136525000D02*
G75*
G03*
X173037500Y-134937500I-100J1587600D01*
G01*
X239712500Y-79375000D02*
X231775000Y-79375000D01*
X193674950Y-124618750D02*
G75*
G03*
X195262500Y-126206250I1587550J50D01*
G01*
X63500000Y-100012500D02*
X63500000Y-115887500D01*
X238125000Y-122237500D02*
X238114875Y-124618750D01*
X231775000Y-93662500D02*
X236537500Y-93662500D01*
X49212500Y-77787500D02*
G75*
G03*
X50800000Y-79375000I1587600J100D01*
G01*
X55562500Y-98425000D02*
X61912500Y-98425000D01*
X63500000Y-100012500D02*
G75*
G03*
X61912500Y-98425000I-1587600J-100D01*
G01*
X123825000Y-136525000D02*
X171450000Y-136525000D01*
X239712500Y-120650000D02*
G75*
G03*
X238125000Y-122237500I10300J-1597800D01*
G01*
X53975000Y-80962500D02*
G75*
G03*
X52387500Y-79375000I-1587600J-100D01*
G01*
X173037500Y-123031250D02*
X173037500Y-134937500D01*
X238125000Y-106362500D02*
G75*
G03*
X239712500Y-107950000I1607900J20400D01*
G01*
X50800000Y-58737500D02*
X239712500Y-58737500D01*
X238125000Y-95250000D02*
G75*
G03*
X236537500Y-93662500I-1587500J0D01*
G01*
X230187500Y-80962500D02*
X230187500Y-92075000D01*
X195262500Y-126206250D02*
X236537500Y-126206250D01*
X231775000Y-79375000D02*
G75*
G03*
X230187500Y-80962500I100J-1587600D01*
G01*
X241300000Y-60325000D02*
G75*
G03*
X239712500Y-58737500I-1587600J-100D01*
G01*
X65087500Y-117475000D02*
X120650000Y-117475000D01*
X53975000Y-96837500D02*
G75*
G03*
X55562500Y-98425000I1587600J100D01*
G01*
X239712500Y-79375000D02*
G75*
G03*
X241300000Y-77787500I-100J1587600D01*
G01*
X122237500Y-119062500D02*
G75*
G03*
X120650000Y-117475000I-1587600J-100D01*
G01*
X49212500Y-60325000D02*
X49212500Y-77787500D01*
X122237500Y-119062500D02*
X122237500Y-134937500D01*
X230187500Y-92075000D02*
G75*
G03*
X231775000Y-93662500I1587500J0D01*
G01*
M02*
