G04 #@! TF.GenerationSoftware,KiCad,Pcbnew,(6.0.6)*
G04 #@! TF.CreationDate,2022-08-05T17:16:04-07:00*
G04 #@! TF.ProjectId,bored27-revision,626f7265-6432-4372-9d72-65766973696f,rev?*
G04 #@! TF.SameCoordinates,Original*
G04 #@! TF.FileFunction,Soldermask,Bot*
G04 #@! TF.FilePolarity,Negative*
%FSLAX46Y46*%
G04 Gerber Fmt 4.6, Leading zero omitted, Abs format (unit mm)*
G04 Created by KiCad (PCBNEW (6.0.6)) date 2022-08-05 17:16:04*
%MOMM*%
%LPD*%
G01*
G04 APERTURE LIST*
G04 Aperture macros list*
%AMRoundRect*
0 Rectangle with rounded corners*
0 $1 Rounding radius*
0 $2 $3 $4 $5 $6 $7 $8 $9 X,Y pos of 4 corners*
0 Add a 4 corners polygon primitive as box body*
4,1,4,$2,$3,$4,$5,$6,$7,$8,$9,$2,$3,0*
0 Add four circle primitives for the rounded corners*
1,1,$1+$1,$2,$3*
1,1,$1+$1,$4,$5*
1,1,$1+$1,$6,$7*
1,1,$1+$1,$8,$9*
0 Add four rect primitives between the rounded corners*
20,1,$1+$1,$2,$3,$4,$5,0*
20,1,$1+$1,$4,$5,$6,$7,0*
20,1,$1+$1,$6,$7,$8,$9,0*
20,1,$1+$1,$8,$9,$2,$3,0*%
G04 Aperture macros list end*
%ADD10C,0.650000*%
%ADD11O,1.600000X1.000000*%
%ADD12O,2.100000X1.000000*%
%ADD13C,1.750000*%
%ADD14C,3.987800*%
%ADD15RoundRect,0.250000X1.025000X1.000000X-1.025000X1.000000X-1.025000X-1.000000X1.025000X-1.000000X0*%
%ADD16C,3.300000*%
%ADD17C,1.700000*%
%ADD18R,1.700000X1.700000*%
G04 APERTURE END LIST*
D10*
X237112500Y-111410000D03*
X237112500Y-117190000D03*
D11*
X240762500Y-109980000D03*
D12*
X236582500Y-109980000D03*
X236582500Y-118620000D03*
D11*
X240762500Y-118620000D03*
D13*
X140811250Y-69056250D03*
D14*
X135731250Y-69056250D03*
D13*
X130651250Y-69056250D03*
D15*
X128371250Y-66516250D03*
D16*
X131921250Y-66516250D03*
D15*
X141821250Y-63976250D03*
D16*
X138271250Y-63976250D03*
D13*
X116363750Y-88106250D03*
X126523750Y-88106250D03*
D14*
X121443750Y-88106250D03*
D16*
X117633750Y-85566250D03*
D15*
X114083750Y-85566250D03*
D16*
X123983750Y-83026250D03*
D15*
X127533750Y-83026250D03*
D13*
X59213750Y-88106250D03*
X69373750Y-88106250D03*
D14*
X64293750Y-88106250D03*
D16*
X60483750Y-85566250D03*
D15*
X56933750Y-85566250D03*
D16*
X66833750Y-83026250D03*
D15*
X70383750Y-83026250D03*
D14*
X169068750Y-107156250D03*
D13*
X174148750Y-107156250D03*
X163988750Y-107156250D03*
D15*
X161708750Y-104616250D03*
D16*
X165258750Y-104616250D03*
X171608750Y-102076250D03*
D15*
X175158750Y-102076250D03*
D13*
X164623750Y-88106250D03*
D14*
X159543750Y-88106250D03*
D13*
X154463750Y-88106250D03*
D15*
X152183750Y-85566250D03*
D16*
X155733750Y-85566250D03*
D15*
X165633750Y-83026250D03*
D16*
X162083750Y-83026250D03*
D13*
X236061250Y-69056250D03*
X225901250Y-69056250D03*
D14*
X230981250Y-69056250D03*
D16*
X227171250Y-66516250D03*
D15*
X223621250Y-66516250D03*
X237071250Y-63976250D03*
D16*
X233521250Y-63976250D03*
D13*
X197961250Y-69056250D03*
D14*
X192881250Y-69056250D03*
D13*
X187801250Y-69056250D03*
D15*
X185521250Y-66516250D03*
D16*
X189071250Y-66516250D03*
X195421250Y-63976250D03*
D15*
X198971250Y-63976250D03*
D13*
X206851250Y-69056250D03*
X217011250Y-69056250D03*
D14*
X211931250Y-69056250D03*
D15*
X204571250Y-66516250D03*
D16*
X208121250Y-66516250D03*
D15*
X218021250Y-63976250D03*
D16*
X214471250Y-63976250D03*
D17*
X199898000Y-110998000D03*
X202438000Y-110998000D03*
X199898000Y-108458000D03*
X202438000Y-108458000D03*
X199898000Y-105918000D03*
D18*
X202438000Y-105918000D03*
D14*
X102393750Y-88106250D03*
D13*
X97313750Y-88106250D03*
X107473750Y-88106250D03*
D16*
X98583750Y-85566250D03*
D15*
X95033750Y-85566250D03*
X108483750Y-83026250D03*
D16*
X104933750Y-83026250D03*
D13*
X144938750Y-107156250D03*
X155098750Y-107156250D03*
D14*
X150018750Y-107156250D03*
D15*
X142658750Y-104616250D03*
D16*
X146208750Y-104616250D03*
X152558750Y-102076250D03*
D15*
X156108750Y-102076250D03*
D13*
X168751250Y-69056250D03*
D14*
X173831250Y-69056250D03*
D13*
X178911250Y-69056250D03*
D16*
X170021250Y-66516250D03*
D15*
X166471250Y-66516250D03*
X179921250Y-63976250D03*
D16*
X176371250Y-63976250D03*
D14*
X147637500Y-126206250D03*
D13*
X152717500Y-126206250D03*
X142557500Y-126206250D03*
D15*
X140277500Y-123666250D03*
D16*
X143827500Y-123666250D03*
D15*
X153727500Y-121126250D03*
D16*
X150177500Y-121126250D03*
D13*
X211613750Y-88106250D03*
D14*
X216693750Y-88106250D03*
D13*
X221773750Y-88106250D03*
D16*
X212883750Y-85566250D03*
D15*
X209333750Y-85566250D03*
X222783750Y-83026250D03*
D16*
X219233750Y-83026250D03*
D13*
X106838750Y-107156250D03*
D14*
X111918750Y-107156250D03*
D13*
X116998750Y-107156250D03*
D16*
X108108750Y-104616250D03*
D15*
X104558750Y-104616250D03*
X118008750Y-102076250D03*
D16*
X114458750Y-102076250D03*
D14*
X130968750Y-107156250D03*
D13*
X125888750Y-107156250D03*
X136048750Y-107156250D03*
D15*
X123608750Y-104616250D03*
D16*
X127158750Y-104616250D03*
X133508750Y-102076250D03*
D15*
X137058750Y-102076250D03*
D13*
X87788750Y-107156250D03*
X97948750Y-107156250D03*
D14*
X92868750Y-107156250D03*
D16*
X89058750Y-104616250D03*
D15*
X85508750Y-104616250D03*
X98958750Y-102076250D03*
D16*
X95408750Y-102076250D03*
D13*
X121761250Y-69056250D03*
D14*
X116681250Y-69056250D03*
D13*
X111601250Y-69056250D03*
D15*
X109321250Y-66516250D03*
D16*
X112871250Y-66516250D03*
X119221250Y-63976250D03*
D15*
X122771250Y-63976250D03*
D14*
X197643750Y-88106250D03*
D13*
X202723750Y-88106250D03*
X192563750Y-88106250D03*
D16*
X193833750Y-85566250D03*
D15*
X190283750Y-85566250D03*
X203733750Y-83026250D03*
D16*
X200183750Y-83026250D03*
D13*
X102711250Y-69056250D03*
D14*
X97631250Y-69056250D03*
D13*
X92551250Y-69056250D03*
D15*
X90271250Y-66516250D03*
D16*
X93821250Y-66516250D03*
X100171250Y-63976250D03*
D15*
X103721250Y-63976250D03*
D13*
X135413750Y-88106250D03*
D14*
X140493750Y-88106250D03*
D13*
X145573750Y-88106250D03*
D15*
X133133750Y-85566250D03*
D16*
X136683750Y-85566250D03*
X143033750Y-83026250D03*
D15*
X146583750Y-83026250D03*
D13*
X83661250Y-69056250D03*
D14*
X78581250Y-69056250D03*
D13*
X73501250Y-69056250D03*
D16*
X74771250Y-66516250D03*
D15*
X71221250Y-66516250D03*
D16*
X81121250Y-63976250D03*
D15*
X84671250Y-63976250D03*
D13*
X68738750Y-107156250D03*
D14*
X73818750Y-107156250D03*
D13*
X78898750Y-107156250D03*
D15*
X66458750Y-104616250D03*
D16*
X70008750Y-104616250D03*
D15*
X79908750Y-102076250D03*
D16*
X76358750Y-102076250D03*
D13*
X173513750Y-88106250D03*
X183673750Y-88106250D03*
D14*
X178593750Y-88106250D03*
D16*
X174783750Y-85566250D03*
D15*
X171233750Y-85566250D03*
X184683750Y-83026250D03*
D16*
X181133750Y-83026250D03*
D13*
X193198750Y-107156250D03*
D14*
X188118750Y-107156250D03*
D13*
X183038750Y-107156250D03*
D16*
X184308750Y-104616250D03*
D15*
X180758750Y-104616250D03*
X194208750Y-102076250D03*
D16*
X190658750Y-102076250D03*
D13*
X64611250Y-69056250D03*
X54451250Y-69056250D03*
D14*
X59531250Y-69056250D03*
D15*
X52171250Y-66516250D03*
D16*
X55721250Y-66516250D03*
X62071250Y-63976250D03*
D15*
X65621250Y-63976250D03*
D13*
X78263750Y-88106250D03*
X88423750Y-88106250D03*
D14*
X83343750Y-88106250D03*
D16*
X79533750Y-85566250D03*
D15*
X75983750Y-85566250D03*
D16*
X85883750Y-83026250D03*
D15*
X89433750Y-83026250D03*
D13*
X149701250Y-69056250D03*
X159861250Y-69056250D03*
D14*
X154781250Y-69056250D03*
D15*
X147421250Y-66516250D03*
D16*
X150971250Y-66516250D03*
X157321250Y-63976250D03*
D15*
X160871250Y-63976250D03*
M02*
